# Blender v2.82 (sub 7) OBJ File: 'GEMS.blend'
# www.blender.org
o square.002_Plane.002
v 0.326499 0.189557 0.156707
v -0.321109 0.189557 0.115970
v -0.028713 0.189557 0.578812
v 0.326499 0.189557 -0.135929
v 0.037142 0.189557 -0.489813
v -0.334804 0.189557 -0.135930
v 0.487491 -0.084281 0.410115
v 0.214508 -0.046254 0.775478
v -0.209119 -0.046254 0.775478
v -0.498322 -0.074131 0.410115
v 0.214508 -0.046254 -0.795437
v 0.484467 -0.055576 -0.430075
v -0.482102 -0.046254 -0.430075
v -0.219639 -0.126034 -0.795437
v 0.002695 -0.612306 -0.009980
vt 0.859122 0.776742
vt 0.861260 0.747178
vt 0.896123 0.714000
vt 0.896123 0.812771
vt 0.467177 0.662679
vt 0.380820 0.607168
vt 0.467177 0.559229
vt 0.280910 0.632001
vt 0.280910 0.674820
vt 0.235264 0.645617
vt 0.138036 0.712599
vt 0.251765 0.685504
vt 0.251765 0.739693
vt 0.950220 0.679764
vt 0.906496 0.654090
vt 0.950220 0.618592
vt 0.138045 0.634125
vt 0.226798 0.582815
vt 0.226798 0.681568
vt 0.284852 0.721443
vt 0.292295 0.654603
vt 0.318182 0.631985
vt 0.373839 0.632507
vt 0.373839 0.695687
vt 0.350404 0.713837
vt 0.796871 0.489708
vt 0.844613 0.461389
vt 0.844613 0.578300
vt 0.815006 0.118866
vt 0.765171 0.091707
vt 0.815006 0.001955
vt 0.664244 0.828186
vt 0.615934 0.801695
vt 0.664244 0.711274
vt 0.749195 0.812216
vt 0.694198 0.806540
vt 0.749195 0.708765
vt 0.900082 0.722044
vt 0.947835 0.714011
vt 0.947835 0.781264
vt 0.900347 0.777552
vt 0.431579 0.938833
vt 0.388767 0.938003
vt 0.380832 0.872491
vt 0.431579 0.882077
vt 0.452964 0.875431
vt 0.502281 0.887213
vt 0.502281 0.942873
vt 0.454549 0.930505
vt 0.625321 0.880446
vt 0.615929 0.833244
vt 0.679099 0.832114
vt 0.679099 0.893286
vt 0.097230 0.569325
vt 0.096176 0.534966
vt 0.133440 0.504042
vt 0.133440 0.602795
vt 0.793223 0.308255
vt 0.793223 0.420437
vt 0.737678 0.411129
vn -0.8385 0.5448 0.0120
vn -0.7455 -0.6655 -0.0365
vn 0.0000 0.6405 0.7680
vn 0.0000 -0.8113 0.5847
vn -0.1368 0.7443 -0.6537
vn 0.7464 -0.6650 -0.0254
vn -0.0000 1.0000 0.0000
vn 0.4681 -0.7720 0.4301
vn -0.4686 -0.7718 0.4298
vn 0.5194 -0.7535 -0.4030
vn -0.6156 -0.7361 -0.2815
vn 0.5275 0.7577 0.3842
vn -0.5519 0.7511 0.3623
vn 0.4843 0.7945 -0.3663
vn -0.4116 0.7920 -0.4509
vn 0.8523 0.5230 0.0110
vn 0.1508 -0.8208 -0.5509
s off
f 2/1/1 6/2/1 13/3/1 10/4/1
f 15/5/2 10/6/2 13/7/2
f 3/8/3 9/9/3 8/10/3
f 15/11/4 8/12/4 9/13/4
f 5/14/5 11/15/5 14/16/5
f 15/17/6 12/18/6 7/19/6
f 3/20/7 1/21/7 4/22/7 5/23/7 6/24/7 2/25/7
f 7/26/8 8/27/8 15/28/8
f 9/29/9 10/30/9 15/31/9
f 11/32/10 12/33/10 15/34/10
f 13/35/11 14/36/11 15/37/11
f 7/38/12 1/39/12 3/40/12 8/41/12
f 9/42/13 3/43/13 2/44/13 10/45/13
f 11/46/14 5/47/14 4/48/14 12/49/14
f 13/50/15 6/51/15 5/52/15 14/53/15
f 4/54/16 1/55/16 7/56/16 12/57/16
f 15/58/17 14/59/17 11/60/17
