# Blender v2.82 (sub 7) OBJ File: 'GEMS.blend'
# www.blender.org
o square.003_Plane.003
v 0.004107 0.241820 -0.401706
v -0.030915 -0.901204 -0.003665
v 0.334451 0.271465 0.167675
v -0.269245 0.271465 0.169849
v -0.030915 0.041727 -0.832605
v 0.781908 0.037364 0.465619
v -0.789390 0.037364 0.434832
vt 0.685518 0.382341
vt 0.650098 0.334381
vt 0.645340 0.252048
vt 0.685518 0.190641
vt 0.536120 0.398034
vt 0.489550 0.341320
vt 0.490908 0.265776
vt 0.536120 0.201339
vt 0.203999 0.744182
vt 0.203999 0.826652
vt 0.138487 0.781825
vt 0.529783 0.188022
vt 0.481249 0.126049
vt 0.489480 0.047096
vt 0.529783 0.003159
vt 0.287693 0.201112
vt 0.287693 0.361803
vt 0.139012 0.251949
vt 0.002816 0.106095
vt 0.133265 0.003234
vt 0.133265 0.199929
vt 0.138894 0.091472
vt 0.268890 0.003202
vt 0.268890 0.194903
vn 0.6088 0.6953 -0.3821
vn -0.0084 0.7693 0.6388
vn -0.0002 0.9987 -0.0519
vn -0.5277 0.7920 -0.3070
vn -0.7812 -0.4122 -0.4689
vn -0.0176 -0.4349 0.9003
vn 0.7672 -0.4235 -0.4818
s off
f 5/1/1 1/2/1 3/3/1 6/4/1
f 6/5/2 3/6/2 4/7/2 7/8/2
f 3/9/3 1/10/3 4/11/3
f 7/12/4 4/13/4 1/14/4 5/15/4
f 2/16/5 7/17/5 5/18/5
f 2/19/6 6/20/6 7/21/6
f 2/22/7 5/23/7 6/24/7
