{
	"asset":{
		"generator":"Khronos glTF Blender I/O v4.1.63",
		"version":"2.0"
	},
	"scene":0,
	"scenes":[
		{
			"name":"Scene",
			"nodes":[
				0,
				1,
				2,
				3,
				4,
				5,
				6,
				7,
				8,
				9,
				10,
				11
			]
		}
	],
	"nodes":[
		{
			"mesh":0,
			"name":"crate-col_cell",
			"translation":[
				0.3143441677093506,
				1.4383972883224487,
				-0.4679090976715088
			]
		},
		{
			"mesh":1,
			"name":"crate-col_cell.001",
			"translation":[
				-0.6232171058654785,
				0.34726908802986145,
				0.4341903030872345
			]
		},
		{
			"mesh":2,
			"name":"crate-col_cell.002",
			"translation":[
				-0.09901687502861023,
				1.2802011966705322,
				0.32382190227508545
			]
		},
		{
			"mesh":3,
			"name":"crate-col_cell.003",
			"translation":[
				0.6836702823638916,
				1.4274818897247314,
				-0.7876297235488892
			]
		},
		{
			"mesh":4,
			"name":"crate-col_cell.004",
			"translation":[
				0.7588013410568237,
				1.2874836921691895,
				0.6741414070129395
			]
		},
		{
			"mesh":5,
			"name":"crate-col_cell.005",
			"translation":[
				-0.7248380184173584,
				0.432065486907959,
				-0.3788202404975891
			]
		},
		{
			"mesh":6,
			"name":"crate-col_cell.006",
			"translation":[
				0.3613482415676117,
				0.5896535515785217,
				0.33687323331832886
			]
		},
		{
			"mesh":7,
			"name":"crate-col_cell.007",
			"translation":[
				-0.7427051663398743,
				0.7299401760101318,
				0.7001376152038574
			]
		},
		{
			"mesh":8,
			"name":"crate-col_cell.008",
			"translation":[
				0.648330569267273,
				1.590216875076294,
				0.46641039848327637
			]
		},
		{
			"mesh":9,
			"name":"crate-col_cell.009",
			"translation":[
				0.21763962507247925,
				0.491890549659729,
				-0.4883325695991516
			]
		},
		{
			"mesh":10,
			"name":"crate-col_cell.010",
			"translation":[
				-0.29498291015625,
				1.1809347867965698,
				-0.5524724125862122
			]
		},
		{
			"mesh":11,
			"name":"crate-col_cell.011",
			"translation":[
				0.8554698824882507,
				0.9798078536987305,
				-0.5511031150817871
			]
		}
	],
	"materials":[
		{
			"doubleSided":true,
			"name":"colormap",
			"pbrMetallicRoughness":{
				"baseColorTexture":{
					"index":0
				},
				"metallicFactor":0
			}
		}
	],
	"meshes":[
		{
			"name":"crate-col_cell.011",
			"primitives":[
				{
					"attributes":{
						"POSITION":0,
						"NORMAL":1,
						"TEXCOORD_0":2
					},
					"indices":3,
					"material":0
				}
			]
		},
		{
			"name":"crate-col_cell.012",
			"primitives":[
				{
					"attributes":{
						"POSITION":4,
						"NORMAL":5,
						"TEXCOORD_0":6
					},
					"indices":7,
					"material":0
				}
			]
		},
		{
			"name":"crate-col_cell.001",
			"primitives":[
				{
					"attributes":{
						"POSITION":8,
						"NORMAL":9,
						"TEXCOORD_0":10
					},
					"indices":11,
					"material":0
				}
			]
		},
		{
			"name":"crate-col_cell.002",
			"primitives":[
				{
					"attributes":{
						"POSITION":12,
						"NORMAL":13,
						"TEXCOORD_0":14
					},
					"indices":15,
					"material":0
				}
			]
		},
		{
			"name":"crate-col_cell.003",
			"primitives":[
				{
					"attributes":{
						"POSITION":16,
						"NORMAL":17,
						"TEXCOORD_0":18
					},
					"indices":19,
					"material":0
				}
			]
		},
		{
			"name":"crate-col_cell.004",
			"primitives":[
				{
					"attributes":{
						"POSITION":20,
						"NORMAL":21,
						"TEXCOORD_0":22
					},
					"indices":23,
					"material":0
				}
			]
		},
		{
			"name":"crate-col_cell.005",
			"primitives":[
				{
					"attributes":{
						"POSITION":24,
						"NORMAL":25,
						"TEXCOORD_0":26
					},
					"indices":27,
					"material":0
				}
			]
		},
		{
			"name":"crate-col_cell.006",
			"primitives":[
				{
					"attributes":{
						"POSITION":28,
						"NORMAL":29,
						"TEXCOORD_0":30
					},
					"indices":31,
					"material":0
				}
			]
		},
		{
			"name":"crate-col_cell.007",
			"primitives":[
				{
					"attributes":{
						"POSITION":32,
						"NORMAL":33,
						"TEXCOORD_0":34
					},
					"indices":35,
					"material":0
				}
			]
		},
		{
			"name":"crate-col_cell.008",
			"primitives":[
				{
					"attributes":{
						"POSITION":36,
						"NORMAL":37,
						"TEXCOORD_0":38
					},
					"indices":39,
					"material":0
				}
			]
		},
		{
			"name":"crate-col_cell.009",
			"primitives":[
				{
					"attributes":{
						"POSITION":40,
						"NORMAL":41,
						"TEXCOORD_0":42
					},
					"indices":43,
					"material":0
				}
			]
		},
		{
			"name":"crate-col_cell.010",
			"primitives":[
				{
					"attributes":{
						"POSITION":44,
						"NORMAL":45,
						"TEXCOORD_0":46
					},
					"indices":47,
					"material":0
				}
			]
		}
	],
	"textures":[
		{
			"sampler":0,
			"source":0
		}
	],
	"images":[
		{
			"mimeType":"image/png",
			"name":"colormap",
			"uri":"colormap.png"
		}
	],
	"accessors":[
		{
			"bufferView":0,
			"componentType":5126,
			"count":185,
			"max":[
				0.5606555938720703,
				0.3116026818752289,
				0.3928467035293579
			],
			"min":[
				-1.1148930788040161,
				-0.417332261800766,
				-0.4070907235145569
			],
			"type":"VEC3"
		},
		{
			"bufferView":1,
			"componentType":5126,
			"count":185,
			"type":"VEC3"
		},
		{
			"bufferView":2,
			"componentType":5126,
			"count":185,
			"type":"VEC2"
		},
		{
			"bufferView":3,
			"componentType":5123,
			"count":372,
			"type":"SCALAR"
		},
		{
			"bufferView":4,
			"componentType":5126,
			"count":116,
			"max":[
				0.2545602321624756,
				0.4875253140926361,
				0.4408099353313446
			],
			"min":[
				-0.2517831325531006,
				-0.34726908802986145,
				-0.6188329458236694
			],
			"type":"VEC3"
		},
		{
			"bufferView":5,
			"componentType":5126,
			"count":116,
			"type":"VEC3"
		},
		{
			"bufferView":6,
			"componentType":5126,
			"count":116,
			"type":"VEC2"
		},
		{
			"bufferView":7,
			"componentType":5123,
			"count":228,
			"type":"SCALAR"
		},
		{
			"bufferView":8,
			"componentType":5126,
			"count":197,
			"max":[
				0.9740166664123535,
				0.4697987735271454,
				0.5511783361434937
			],
			"min":[
				-0.7759833335876465,
				-0.789469838142395,
				-0.48507988452911377
			],
			"type":"VEC3"
		},
		{
			"bufferView":9,
			"componentType":5126,
			"count":197,
			"type":"VEC3"
		},
		{
			"bufferView":10,
			"componentType":5126,
			"count":197,
			"type":"VEC2"
		},
		{
			"bufferView":11,
			"componentType":5123,
			"count":384,
			"type":"SCALAR"
		},
		{
			"bufferView":12,
			"componentType":5126,
			"count":48,
			"max":[
				0.19132953882217407,
				0.32251816987991333,
				0.2013225555419922
			],
			"min":[
				-0.2965807020664215,
				-0.4003375172615051,
				-0.08737009763717651
			],
			"type":"VEC3"
		},
		{
			"bufferView":13,
			"componentType":5126,
			"count":48,
			"type":"VEC3"
		},
		{
			"bufferView":14,
			"componentType":5126,
			"count":48,
			"type":"VEC2"
		},
		{
			"bufferView":15,
			"componentType":5123,
			"count":96,
			"type":"SCALAR"
		},
		{
			"bufferView":16,
			"componentType":5126,
			"count":45,
			"max":[
				0.11619848012924194,
				0.30138272047042847,
				0.20085883140563965
			],
			"min":[
				-0.225247323513031,
				-0.49881789088249207,
				-0.27287256717681885
			],
			"type":"VEC3"
		},
		{
			"bufferView":17,
			"componentType":5126,
			"count":45,
			"type":"VEC3"
		},
		{
			"bufferView":18,
			"componentType":5126,
			"count":45,
			"type":"VEC2"
		},
		{
			"bufferView":19,
			"componentType":5123,
			"count":78,
			"type":"SCALAR"
		},
		{
			"bufferView":20,
			"componentType":5126,
			"count":86,
			"max":[
				0.22740110754966736,
				0.39622390270233154,
				0.5700448751449585
			],
			"min":[
				-0.1501622498035431,
				-0.432065486907959,
				-0.49617958068847656
			],
			"type":"VEC3"
		},
		{
			"bufferView":21,
			"componentType":5126,
			"count":86,
			"type":"VEC3"
		},
		{
			"bufferView":22,
			"componentType":5126,
			"count":86,
			"type":"VEC2"
		},
		{
			"bufferView":23,
			"componentType":5123,
			"count":162,
			"type":"SCALAR"
		},
		{
			"bufferView":24,
			"componentType":5126,
			"count":142,
			"max":[
				0.5136516094207764,
				0.7752171158790588,
				0.5381270051002502
			],
			"min":[
				-0.8935403823852539,
				-0.5896535515785217,
				-0.8728000521659851
			],
			"type":"VEC3"
		},
		{
			"bufferView":25,
			"componentType":5126,
			"count":142,
			"type":"VEC3"
		},
		{
			"bufferView":26,
			"componentType":5126,
			"count":142,
			"type":"VEC2"
		},
		{
			"bufferView":27,
			"componentType":5123,
			"count":288,
			"type":"SCALAR"
		},
		{
			"bufferView":28,
			"componentType":5126,
			"count":36,
			"max":[
				0.180026113986969,
				0.6615732312202454,
				0.17486265301704407
			],
			"min":[
				-0.13229507207870483,
				-0.2598836421966553,
				-0.22325558960437775
			],
			"type":"VEC3"
		},
		{
			"bufferView":29,
			"componentType":5126,
			"count":36,
			"type":"VEC3"
		},
		{
			"bufferView":30,
			"componentType":5126,
			"count":36,
			"type":"VEC2"
		},
		{
			"bufferView":31,
			"componentType":5123,
			"count":60,
			"type":"SCALAR"
		},
		{
			"bufferView":32,
			"componentType":5126,
			"count":64,
			"max":[
				0.22666925191879272,
				0.15978306531906128,
				0.40858983993530273
			],
			"min":[
				-0.5707447528839111,
				-0.1620960831642151,
				-0.6459169983863831
			],
			"type":"VEC3"
		},
		{
			"bufferView":33,
			"componentType":5126,
			"count":64,
			"type":"VEC3"
		},
		{
			"bufferView":34,
			"componentType":5126,
			"count":64,
			"type":"VEC2"
		},
		{
			"bufferView":35,
			"componentType":5123,
			"count":126,
			"type":"SCALAR"
		},
		{
			"bufferView":36,
			"componentType":5126,
			"count":148,
			"max":[
				0.6573601961135864,
				0.540912926197052,
				0.9251447916030884
			],
			"min":[
				-0.9653491973876953,
				-0.491890549659729,
				-0.38666725158691406
			],
			"type":"VEC3"
		},
		{
			"bufferView":37,
			"componentType":5126,
			"count":148,
			"type":"VEC3"
		},
		{
			"bufferView":38,
			"componentType":5126,
			"count":148,
			"type":"VEC2"
		},
		{
			"bufferView":39,
			"componentType":5123,
			"count":300,
			"type":"SCALAR"
		},
		{
			"bufferView":40,
			"componentType":5126,
			"count":183,
			"max":[
				1.169982671737671,
				0.5690652132034302,
				0.4030330181121826
			],
			"min":[
				-0.5800173282623291,
				-0.46606823801994324,
				-0.3225274085998535
			],
			"type":"VEC3"
		},
		{
			"bufferView":41,
			"componentType":5126,
			"count":183,
			"type":"VEC3"
		},
		{
			"bufferView":42,
			"componentType":5126,
			"count":183,
			"type":"VEC2"
		},
		{
			"bufferView":43,
			"componentType":5123,
			"count":354,
			"type":"SCALAR"
		},
		{
			"bufferView":44,
			"componentType":5126,
			"count":12,
			"max":[
				0.01952993869781494,
				0.060474276542663574,
				0.04023396968841553
			],
			"min":[
				-0.05858983099460602,
				-0.16218584775924683,
				-0.020538687705993652
			],
			"type":"VEC3"
		},
		{
			"bufferView":45,
			"componentType":5126,
			"count":12,
			"type":"VEC3"
		},
		{
			"bufferView":46,
			"componentType":5126,
			"count":12,
			"type":"VEC2"
		},
		{
			"bufferView":47,
			"componentType":5123,
			"count":12,
			"type":"SCALAR"
		}
	],
	"bufferViews":[
		{
			"buffer":0,
			"byteLength":2220,
			"byteOffset":0,
			"target":34962
		},
		{
			"buffer":0,
			"byteLength":2220,
			"byteOffset":2220,
			"target":34962
		},
		{
			"buffer":0,
			"byteLength":1480,
			"byteOffset":4440,
			"target":34962
		},
		{
			"buffer":0,
			"byteLength":744,
			"byteOffset":5920,
			"target":34963
		},
		{
			"buffer":0,
			"byteLength":1392,
			"byteOffset":6664,
			"target":34962
		},
		{
			"buffer":0,
			"byteLength":1392,
			"byteOffset":8056,
			"target":34962
		},
		{
			"buffer":0,
			"byteLength":928,
			"byteOffset":9448,
			"target":34962
		},
		{
			"buffer":0,
			"byteLength":456,
			"byteOffset":10376,
			"target":34963
		},
		{
			"buffer":0,
			"byteLength":2364,
			"byteOffset":10832,
			"target":34962
		},
		{
			"buffer":0,
			"byteLength":2364,
			"byteOffset":13196,
			"target":34962
		},
		{
			"buffer":0,
			"byteLength":1576,
			"byteOffset":15560,
			"target":34962
		},
		{
			"buffer":0,
			"byteLength":768,
			"byteOffset":17136,
			"target":34963
		},
		{
			"buffer":0,
			"byteLength":576,
			"byteOffset":17904,
			"target":34962
		},
		{
			"buffer":0,
			"byteLength":576,
			"byteOffset":18480,
			"target":34962
		},
		{
			"buffer":0,
			"byteLength":384,
			"byteOffset":19056,
			"target":34962
		},
		{
			"buffer":0,
			"byteLength":192,
			"byteOffset":19440,
			"target":34963
		},
		{
			"buffer":0,
			"byteLength":540,
			"byteOffset":19632,
			"target":34962
		},
		{
			"buffer":0,
			"byteLength":540,
			"byteOffset":20172,
			"target":34962
		},
		{
			"buffer":0,
			"byteLength":360,
			"byteOffset":20712,
			"target":34962
		},
		{
			"buffer":0,
			"byteLength":156,
			"byteOffset":21072,
			"target":34963
		},
		{
			"buffer":0,
			"byteLength":1032,
			"byteOffset":21228,
			"target":34962
		},
		{
			"buffer":0,
			"byteLength":1032,
			"byteOffset":22260,
			"target":34962
		},
		{
			"buffer":0,
			"byteLength":688,
			"byteOffset":23292,
			"target":34962
		},
		{
			"buffer":0,
			"byteLength":324,
			"byteOffset":23980,
			"target":34963
		},
		{
			"buffer":0,
			"byteLength":1704,
			"byteOffset":24304,
			"target":34962
		},
		{
			"buffer":0,
			"byteLength":1704,
			"byteOffset":26008,
			"target":34962
		},
		{
			"buffer":0,
			"byteLength":1136,
			"byteOffset":27712,
			"target":34962
		},
		{
			"buffer":0,
			"byteLength":576,
			"byteOffset":28848,
			"target":34963
		},
		{
			"buffer":0,
			"byteLength":432,
			"byteOffset":29424,
			"target":34962
		},
		{
			"buffer":0,
			"byteLength":432,
			"byteOffset":29856,
			"target":34962
		},
		{
			"buffer":0,
			"byteLength":288,
			"byteOffset":30288,
			"target":34962
		},
		{
			"buffer":0,
			"byteLength":120,
			"byteOffset":30576,
			"target":34963
		},
		{
			"buffer":0,
			"byteLength":768,
			"byteOffset":30696,
			"target":34962
		},
		{
			"buffer":0,
			"byteLength":768,
			"byteOffset":31464,
			"target":34962
		},
		{
			"buffer":0,
			"byteLength":512,
			"byteOffset":32232,
			"target":34962
		},
		{
			"buffer":0,
			"byteLength":252,
			"byteOffset":32744,
			"target":34963
		},
		{
			"buffer":0,
			"byteLength":1776,
			"byteOffset":32996,
			"target":34962
		},
		{
			"buffer":0,
			"byteLength":1776,
			"byteOffset":34772,
			"target":34962
		},
		{
			"buffer":0,
			"byteLength":1184,
			"byteOffset":36548,
			"target":34962
		},
		{
			"buffer":0,
			"byteLength":600,
			"byteOffset":37732,
			"target":34963
		},
		{
			"buffer":0,
			"byteLength":2196,
			"byteOffset":38332,
			"target":34962
		},
		{
			"buffer":0,
			"byteLength":2196,
			"byteOffset":40528,
			"target":34962
		},
		{
			"buffer":0,
			"byteLength":1464,
			"byteOffset":42724,
			"target":34962
		},
		{
			"buffer":0,
			"byteLength":708,
			"byteOffset":44188,
			"target":34963
		},
		{
			"buffer":0,
			"byteLength":144,
			"byteOffset":44896,
			"target":34962
		},
		{
			"buffer":0,
			"byteLength":144,
			"byteOffset":45040,
			"target":34962
		},
		{
			"buffer":0,
			"byteLength":96,
			"byteOffset":45184,
			"target":34962
		},
		{
			"buffer":0,
			"byteLength":24,
			"byteOffset":45280,
			"target":34963
		}
	],
	"samplers":[
		{
			"magFilter":9728,
			"minFilter":9984
		}
	],
	"buffers":[
		{
			"byteLength":45304,
			"uri":"crate_fragments.bin"
		}
	]
}
